<svg xmlns="http://www.w3.org/2000/svg" xmlns:xlink="http://www.w3.org/1999/xlink" viewBox="0 0 96.68 141.91"><defs><style>.cls-1{fill:url(#linear-gradient);}.cls-2{fill:#e3fff0;}.cls-3{fill:url(#Gradient_bez_nazwy_2);}.cls-4{fill:url(#linear-gradient-2);}.cls-5{fill:#ebfff8;}.cls-6{fill:url(#Gradient_bez_nazwy_5);}.cls-7{fill:url(#linear-gradient-3);}.cls-8{fill:url(#linear-gradient-4);}.cls-9{fill:url(#linear-gradient-5);}.cls-10{fill:url(#linear-gradient-6);}.cls-11{fill:url(#linear-gradient-7);}.cls-12{fill:url(#linear-gradient-8);}.cls-13{fill:url(#Gradient_bez_nazwy_2-2);}.cls-14{fill:url(#Gradient_bez_nazwy_8);}.cls-15{fill:url(#Gradient_bez_nazwy_10);}.cls-16{fill:#f8fffb;}.cls-17{fill:#f5feff;opacity:0.3;}.cls-18{fill:url(#Gradient_bez_nazwy_5-2);}.cls-19{opacity:0.6;fill:url(#Gradient_bez_nazwy_2-3);}.cls-20{fill:#1f81cb;}</style><linearGradient id="linear-gradient" x1="45.94" y1="154.75" x2="45.94" y2="-20.51" gradientTransform="matrix(0.98, -0.21, 0.21, 0.98, -11.06, 9.92)" gradientUnits="userSpaceOnUse"><stop offset="0" stop-color="#6ed5ff"/><stop offset="1" stop-color="#7eb3fc"/></linearGradient><linearGradient id="Gradient_bez_nazwy_2" x1="45.41" y1="172.3" x2="45.41" y2="28.07" gradientTransform="translate(2.81 -1.08)" gradientUnits="userSpaceOnUse"><stop offset="0" stop-color="#2ca6ef"/><stop offset="1" stop-color="#b1ffff"/></linearGradient><linearGradient id="linear-gradient-2" x1="53.38" y1="101.86" x2="70.13" y2="73.97" gradientTransform="translate(140.29 147.55) rotate(180)" xlink:href="#linear-gradient"/><linearGradient id="Gradient_bez_nazwy_5" x1="99.83" y1="89.04" x2="-8.25" y2="89.04" gradientTransform="translate(126.21 173.57) rotate(180)" gradientUnits="userSpaceOnUse"><stop offset="0" stop-color="#36078b"/><stop offset="1" stop-color="#16b1ff"/></linearGradient><linearGradient id="linear-gradient-3" x1="31.73" y1="96.98" x2="48.49" y2="87.07" gradientTransform="matrix(1, 0, 0, 1, 6.46, -1.41)" xlink:href="#linear-gradient"/><linearGradient id="linear-gradient-4" x1="-15.61" y1="103.13" x2="65.8" y2="103.13" gradientTransform="matrix(-1, 0, 0, -1, 129.68, 201.37)" xlink:href="#linear-gradient"/><linearGradient id="linear-gradient-5" x1="-15.61" y1="106.54" x2="65.8" y2="106.54" gradientTransform="translate(134.86 207.65) rotate(180)" xlink:href="#linear-gradient"/><linearGradient id="linear-gradient-6" x1="-15.61" y1="109.95" x2="65.8" y2="109.95" gradientTransform="translate(140.24 213.92) rotate(180)" xlink:href="#linear-gradient"/><linearGradient id="linear-gradient-7" x1="99.83" y1="109.95" x2="-8.25" y2="109.95" gradientTransform="translate(122.41 215.79) rotate(180)" xlink:href="#linear-gradient"/><linearGradient id="linear-gradient-8" x1="-15.61" y1="113.37" x2="65.8" y2="113.37" gradientTransform="translate(137.55 221.02) rotate(180)" xlink:href="#linear-gradient"/><linearGradient id="Gradient_bez_nazwy_2-2" x1="24.08" y1="76.54" x2="105.32" y2="-4.7" gradientTransform="translate(102.33 94.76) rotate(180)" xlink:href="#Gradient_bez_nazwy_2"/><linearGradient id="Gradient_bez_nazwy_8" x1="59.04" y1="50.08" x2="101.85" y2="58.15" gradientTransform="matrix(0.98, -0.21, 0.21, 0.98, -11.06, 9.92)" gradientUnits="userSpaceOnUse"><stop offset="0" stop-color="#2c27ce"/><stop offset="1" stop-color="#ef1d68"/></linearGradient><linearGradient id="Gradient_bez_nazwy_10" x1="99.83" y1="108.28" x2="-8.25" y2="108.28" gradientTransform="translate(60.73 218.93) rotate(180)" gradientUnits="userSpaceOnUse"><stop offset="0" stop-color="#36078b"/><stop offset="0.26" stop-color="#2e34aa"/><stop offset="1" stop-color="#16b1ff"/></linearGradient><linearGradient id="Gradient_bez_nazwy_5-2" x1="99.84" y1="52.37" x2="-8.25" y2="52.37" gradientTransform="matrix(-1, 0, 0, -1, 41.15, 109.16)" xlink:href="#Gradient_bez_nazwy_5"/><linearGradient id="Gradient_bez_nazwy_2-3" x1="22.91" y1="101.26" x2="80.67" y2="32.42" gradientTransform="matrix(1, 0, 0, 1, 0, 0)" xlink:href="#Gradient_bez_nazwy_2"/></defs><title>Asset 1</title><g id="Layer_2" data-name="Layer 2"><g id="Objects"><path class="cls-1" d="M76.65,30.06,72.81,12,70.9,3A3.79,3.79,0,0,0,66.42.08L3,13.57A3.78,3.78,0,0,0,.08,18.05l1.92,9L25.78,138.92a3.77,3.77,0,0,0,4.48,2.9l63.43-13.48a3.78,3.78,0,0,0,2.91-4.48l-16-75.11a1.59,1.59,0,0,0,.72-1.67L78,31.29A1.57,1.57,0,0,0,76.65,30.06Z"/><path class="cls-2" d="M61.3,131.91h0a3.56,3.56,0,0,1-4.21-2.73h0A3.55,3.55,0,0,1,59.82,125h0A3.54,3.54,0,0,1,64,127.7h0A3.55,3.55,0,0,1,61.3,131.91Z"/><path class="cls-2" d="M23.51,17.21h0A1.45,1.45,0,0,1,21.8,16.1h0a1.44,1.44,0,0,1,1.11-1.71h0a1.43,1.43,0,0,1,1.71,1.11h0A1.44,1.44,0,0,1,23.51,17.21Z"/><path class="cls-2" d="M43.26,12.08l-14,3A.53.53,0,0,1,29,14l14-3a.53.53,0,0,1,.22,1Z"/><rect class="cls-3" x="13.37" y="18.4" width="69.71" height="104.01" transform="translate(-13.59 11.57) rotate(-12)"/><rect class="cls-4" x="65.53" y="68.78" width="12.64" height="4" transform="translate(156.85 125.07) rotate(168)"/><rect class="cls-5" x="34.03" y="75.48" width="12.64" height="4" transform="translate(95.94 144.87) rotate(168)"/><rect class="cls-5" x="49.78" y="72.13" width="12.64" height="4" transform="translate(126.4 134.97) rotate(168)"/><rect class="cls-5" x="22.63" y="80.57" width="58.49" height="14.01" transform="translate(120.82 162.44) rotate(168)"/><rect class="cls-6" x="53.38" y="79.27" width="25.59" height="10.51" transform="translate(148.49 153.45) rotate(168)"/><rect class="cls-7" x="50.45" y="82.37" width="2.32" height="10.51" transform="translate(-17.09 12.65) rotate(-12)"/><rect class="cls-5" x="47.6" y="95.44" width="37.29" height="17.49" transform="translate(152.71 192.31) rotate(168)"/><rect class="cls-8" x="59.86" y="97.29" width="19.02" height="1.92" transform="translate(157.66 179.92) rotate(168)"/><rect class="cls-9" x="65.04" y="100.16" width="14.51" height="1.92" transform="translate(164.03 184.99) rotate(168)"/><rect class="cls-10" x="70.42" y="103" width="9.78" height="1.92" transform="translate(170.6 189.99) rotate(167.99)"/><rect class="cls-11" x="63.58" y="104.88" width="5.83" height="1.92" transform="translate(153.54 195.54) rotate(168)"/><rect class="cls-12" x="67.72" y="106.7" width="13.23" height="1.92" transform="translate(169.44 197.51) rotate(168)"/><rect class="cls-13" x="27.67" y="23.96" width="44.84" height="44.84" transform="translate(108.74 81.32) rotate(168)"/><path class="cls-14" d="M62.25,50.26l-3.83-11.5a2,2,0,0,0-2.3-1.32l-.94.19a6.81,6.81,0,0,0-13.29,2.83l-.94.2a2,2,0,0,0-1.57,2.15l1.19,12.06a6.73,6.73,0,0,0,8.09,5.93L57.27,59A6.73,6.73,0,0,0,62.25,50.26ZM47.74,35.31a4.36,4.36,0,0,1,5,2.84l-8.43,1.79A4.36,4.36,0,0,1,47.74,35.31Z"/><rect class="cls-15" x="27.07" y="101.91" width="17.49" height="17.49" transform="translate(93.87 211.44) rotate(168)"/><path class="cls-16" d="M36,111.43h0a2.23,2.23,0,0,0,1.71-2.65l-.28-1.31a2.22,2.22,0,0,0-2.64-1.71h0a2.22,2.22,0,0,0-1.71,2.64l.27,1.31A2.24,2.24,0,0,0,36,111.43Z"/><path class="cls-16" d="M35.75,110.31a5.25,5.25,0,0,1,5.27,2,1.57,1.57,0,0,1-.91,2.49l-6.54,1.39a1.57,1.57,0,0,1-1.85-1.9A5.25,5.25,0,0,1,35.75,110.31Z"/><polygon class="cls-17" points="50.89 16.67 13.43 74.37 7.99 48.79 25.32 22.11 50.89 16.67"/><polygon class="cls-17" points="68.71 12.88 17.22 92.17 14.5 79.38 55.92 15.6 68.71 12.88"/><rect class="cls-18" x="16.24" y="30.39" width="8.04" height="52.81" transform="translate(51.89 108.14) rotate(168)"/><path class="cls-19" d="M76.65,30.06,72.81,12,70.9,3A3.79,3.79,0,0,0,66.42.08L3,13.57A3.78,3.78,0,0,0,.08,18.05l1.92,9L25.78,138.92a3.77,3.77,0,0,0,4.48,2.9l63.43-13.48a3.78,3.78,0,0,0,2.91-4.48l-16-75.11a1.59,1.59,0,0,0,.72-1.67L78,31.29A1.57,1.57,0,0,0,76.65,30.06Z"/><path class="cls-20" d="M30.09,94.59A1.09,1.09,0,0,1,30,94a2,2,0,0,1,.1-.59,1.86,1.86,0,0,1,.3-.53,2,2,0,0,1,.48-.42,2.18,2.18,0,0,1,.66-.27,1.42,1.42,0,0,1,.79,0,1,1,0,0,1,.52.29.1.1,0,0,1,0,.13l-.49.69a.08.08,0,0,1-.06,0l-.06,0a.88.88,0,0,0-.3-.16.58.58,0,0,0-.32,0,.64.64,0,0,0-.32.2.57.57,0,0,0-.15.42.56.56,0,0,0,.08.3.76.76,0,0,0,.18.18l1.43-.34c.05,0,.08,0,.08.08v.8a.12.12,0,0,1-.08.12l-3.14.75c-.06,0-.09,0-.09-.07v-.81a.1.1,0,0,1,.09-.11Z"/><path class="cls-20" d="M35,94.33a.09.09,0,0,1-.08.1l-1.25.3c-.05,0-.08,0-.08-.06V89a.11.11,0,0,1,.08-.11l1.25-.3s.08,0,.08.07Z"/><path class="cls-20" d="M36.32,90.47a.1.1,0,0,1,.09-.1l1.24-.3c.06,0,.08,0,.08.06v2a.28.28,0,0,0,.15.26.59.59,0,0,0,.42,0l.24,0c.22-.06.33.12.33.53a1.21,1.21,0,0,1-.08.47.34.34,0,0,1-.25.22,1.22,1.22,0,0,1-.48,0,.55.55,0,0,1-.33-.15v.11a2.67,2.67,0,0,1-.41,1.6A2.21,2.21,0,0,1,36,96l-.46.11c-.05,0-.08,0-.08-.07V94.94a.1.1,0,0,1,.08-.1l.17,0a.66.66,0,0,0,.51-.36,1.75,1.75,0,0,0,.11-.72Z"/><path class="cls-20" d="M45.22,90.86a2.08,2.08,0,0,1-.07.54.82.82,0,0,1-.2.38,1,1,0,0,1-.36.27,2.84,2.84,0,0,1-.54.18l-.28.07a1,1,0,0,1-.56,0,.68.68,0,0,1-.32-.25.82.82,0,0,1-.37.46,2.58,2.58,0,0,1-.69.25l-.28.07a.91.91,0,0,1-.57,0,.62.62,0,0,1-.32-.25.93.93,0,0,1-.37.47,2.54,2.54,0,0,1-.7.25l-1.05.25a.22.22,0,0,1-.25-.06.7.7,0,0,1-.08-.43,1.2,1.2,0,0,1,.08-.52.33.33,0,0,1,.25-.21l.45-.11a.49.49,0,0,0,.29-.18,1,1,0,0,0,.07-.44V90.32a.1.1,0,0,1,.08-.11l1.25-.3s.08,0,.08.07v1.39c0,.17,0,.27.1.31a.44.44,0,0,0,.31,0,.56.56,0,0,0,.34-.2,1,1,0,0,0,.07-.44V89.78c0-.06,0-.09.09-.11l1.24-.3c.05,0,.08,0,.08.07v1.38c0,.17,0,.28.12.32a.4.4,0,0,0,.31,0,.45.45,0,0,0,.32-.19,1.22,1.22,0,0,0,.06-.44V88.67a.1.1,0,0,1,.09-.1l1.24-.3c.06,0,.09,0,.09.07Zm-4.14-2.49s-.08,0-.08-.07v-1a.09.09,0,0,1,.08-.1l1-.24c.06,0,.09,0,.09.07v1c0,.06,0,.09-.09.11Zm.67-1.48c-.06,0-.08,0-.08-.07v-1a.1.1,0,0,1,.08-.11l1-.23c.05,0,.08,0,.08.07v1a.1.1,0,0,1-.08.1Zm.7,1.15c-.05,0-.08,0-.08-.07V87a.1.1,0,0,1,.08-.1l1-.24c.06,0,.09,0,.09.07v1c0,.06,0,.09-.09.11Z"/></g></g></svg>